<?xml version="1.0" encoding="UTF-8" standalone="no"?>
<!DOCTYPE svg PUBLIC "-//W3C//DTD SVG 1.1//EN" "http://www.w3.org/Graphics/SVG/1.1/DTD/svg11.dtd">
<svg xmlns="http://www.w3.org/2000/svg" version="1.1" viewBox="0.00 0.00 549.00 619.00">
<path fill="#000000" d="
  M 270.90 604.55
  Q 156.70 604.53 42.50 604.50
  Q 39.66 604.50 37.41 604.41
  A 1.73 1.72 1.4 0 1 35.75 602.68
  Q 36.54 439.25 36.07 291.75
  Q 36.01 270.92 36.05 255.07
  Q 36.12 231.13 37.50 218.43
  Q 46.10 139.25 99.19 80.95
  C 139.94 36.20 198.30 9.27 259.24 6.52
  Q 262.40 6.38 271.01 6.38
  Q 279.63 6.38 282.78 6.52
  C 343.72 9.30 402.07 36.25 442.81 81.02
  Q 495.87 139.34 504.44 218.52
  Q 505.82 231.22 505.88 255.16
  Q 505.91 271.01 505.85 291.84
  Q 505.32 439.34 506.05 602.77
  A 1.73 1.72 -1.4 0 1 504.39 604.50
  Q 502.14 604.59 499.30 604.59
  Q 385.10 604.57 270.90 604.55
  Z
  M 121.05 521.38
  L 420.91 521.38
  A 2.32 2.32 0.0 0 0 423.23 519.06
  L 423.23 243.68
  A 154.68 152.21 90.0 0 0 271.02 89.00
  L 270.94 89.00
  A 154.68 152.21 90.0 0 0 118.73 243.68
  L 118.73 519.06
  A 2.32 2.32 0.0 0 0 121.05 521.38
  Z"
/>
</svg>
