<?xml version="1.0" encoding="UTF-8" standalone="no"?>
<!DOCTYPE svg PUBLIC "-//W3C//DTD SVG 1.1//EN" "http://www.w3.org/Graphics/SVG/1.1/DTD/svg11.dtd">
<svg xmlns="http://www.w3.org/2000/svg" version="1.1" viewBox="0.00 0.00 779.00 188.00">
<path fill="#000000" d="
  M 155.68 168.16
  A 0.81 0.81 0.0 0 1 154.87 167.35
  L 154.87 76.04
  A 64.44 62.71 -90.0 0 1 217.58 11.60
  L 221.68 11.60
  A 64.44 62.71 90.0 0 1 284.39 76.04
  L 284.39 167.35
  A 0.81 0.81 0.0 0 1 283.58 168.16
  L 155.68 168.16
  Z
  M 180.24 145.77
  L 258.84 145.91
  A 1.30 1.30 0.0 0 0 260.14 144.61
  L 260.26 76.36
  A 42.43 39.58 -89.9 0 0 220.76 33.86
  L 218.72 33.86
  A 42.43 39.58 -89.9 0 0 179.06 76.22
  L 178.94 144.47
  A 1.30 1.30 0.0 0 0 180.24 145.77
  Z"
/>
<path fill="#000000" d="
  M 429.06 53.65
  A 0.52 0.52 0.0 0 1 428.30 53.62
  C 413.93 37.07 394.52 29.62 373.07 35.39
  Q 351.85 41.09 340.88 61.10
  Q 328.41 83.84 335.61 108.27
  Q 342.84 132.78 364.66 143.33
  C 387.14 154.20 411.89 147.52 428.79 129.08
  A 0.61 0.60 42.7 0 1 429.65 129.05
  L 444.96 143.28
  A 0.66 0.66 0.0 0 1 445.01 144.19
  C 425.49 166.89 397.81 174.84 368.79 168.65
  C 348.52 164.33 330.47 150.94 319.72 133.32
  C 302.74 105.49 305.13 65.81 325.66 40.46
  C 335.41 28.43 348.04 19.40 363.01 14.95
  C 381.25 9.51 402.58 10.18 419.68 18.16
  Q 433.52 24.62 444.62 36.90
  A 0.88 0.88 0.0 0 1 444.59 38.12
  L 429.06 53.65
  Z"
/>
<path fill="#000000" d="
  M 55.44 14.71
  L 55.44 145.03
  A 0.80 0.80 0.0 0 0 56.24 145.83
  L 131.59 145.83
  A 0.80 0.80 0.0 0 1 132.39 146.63
  L 132.39 167.37
  A 0.80 0.80 0.0 0 1 131.59 168.17
  L 31.66 168.17
  A 0.80 0.80 0.0 0 1 30.86 167.37
  L 30.86 14.71
  A 0.80 0.80 0.0 0 1 31.66 13.91
  L 54.64 13.91
  A 0.80 0.80 0.0 0 1 55.44 14.71
  Z"
/>
<path fill="#000000" d="
  M 586.55 167.56
  A 0.40 0.39 -15.7 0 1 586.21 168.16
  L 559.91 168.16
  A 2.74 2.72 74.9 0 1 557.55 166.79
  L 526.87 113.65
  A 3.05 3.04 -15.1 0 0 524.24 112.14
  L 492.46 112.14
  A 0.81 0.81 0.0 0 0 491.65 112.95
  L 491.65 167.35
  A 0.79 0.79 0.0 0 1 490.86 168.14
  L 468.15 168.14
  A 0.59 0.59 0.0 0 1 467.56 167.55
  L 467.56 14.79
  A 0.71 0.71 0.0 0 1 468.26 14.08
  Q 502.03 13.59 532.22 13.99
  Q 545.04 14.16 557.43 19.80
  Q 576.66 28.56 581.33 49.43
  C 585.58 68.37 581.00 88.90 564.79 100.68
  C 561.23 103.26 555.86 105.53 551.55 107.09
  A 1.10 1.10 0.0 0 0 550.99 108.69
  L 586.55 167.56
  Z
  M 491.52 36.67
  L 491.80 89.75
  A 0.69 0.69 0.0 0 0 492.49 90.44
  L 530.57 90.24
  A 27.61 25.12 -0.3 0 0 558.05 64.98
  L 558.03 60.76
  A 27.61 25.12 -0.3 0 0 530.29 35.78
  L 492.21 35.98
  A 0.69 0.69 0.0 0 0 491.52 36.67
  Z"
/>
<path fill="#000000" d="
  M 753.22 168.14
  L 728.61 168.14
  A 1.43 1.42 -11.6 0 1 727.30 167.28
  L 710.92 129.85
  A 1.31 1.31 0.0 0 0 709.72 129.06
  L 638.81 129.06
  A 1.45 1.44 11.3 0 0 637.48 129.94
  L 621.73 167.50
  A 1.09 1.08 11.4 0 1 620.73 168.16
  L 596.86 168.16
  A 0.69 0.69 0.0 0 1 596.23 167.20
  Q 630.01 89.36 661.13 17.14
  Q 661.89 15.36 662.80 14.31
  A 1.34 1.33 20.1 0 1 663.82 13.84
  L 685.49 13.84
  A 1.27 1.27 0.0 0 1 686.66 14.61
  L 753.58 167.58
  A 0.40 0.40 0.0 0 1 753.22 168.14
  Z
  M 647.14 107.04
  A 0.34 0.34 0.0 0 0 647.46 107.51
  L 701.20 107.41
  A 0.34 0.34 0.0 0 0 701.51 106.94
  L 674.53 42.54
  A 0.34 0.34 0.0 0 0 673.90 42.54
  L 647.14 107.04
  Z"
/>
</svg>
